<svg width="13" height="22" viewBox="0 0 13 22" fill="none" xmlns="http://www.w3.org/2000/svg">
<path d="M0.746252 10.5084L10.9836 0.271681C11.1056 0.150459 11.2707 0.0825283 11.4427 0.0827643C11.6147 0.0830003 11.7795 0.151384 11.9012 0.27294C12.0229 0.394497 12.0915 0.55932 12.0919 0.731319C12.0923 0.903317 12.0246 1.06847 11.9035 1.19062L2.12515 10.968L11.9035 20.7448C12.0249 20.8668 12.093 21.0321 12.0928 21.2043C12.0925 21.3765 12.0239 21.5416 11.9021 21.6633C11.7803 21.785 11.6151 21.8534 11.4429 21.8535C11.2707 21.8536 11.1055 21.7853 10.9836 21.6637L0.746252 11.4274C0.685882 11.3671 0.637989 11.2954 0.605314 11.2166C0.572639 11.1378 0.55582 11.0533 0.55582 10.9679C0.55582 10.8826 0.572639 10.7981 0.605314 10.7192C0.637989 10.6404 0.685882 10.5688 0.746252 10.5084Z" fill="#495162"/>
</svg>
